<svg width="26" height="17" viewBox="0 0 26 17" fill="none" xmlns="http://www.w3.org/2000/svg">
<path d="M24.6204 4.63083H7.76854L7.35887 2.92313C7.21701 2.32328 6.87655 1.78905 6.39262 1.40736C5.90869 1.02566 5.30985 0.818582 4.69357 0.820231H1.54356C1.18278 0.820231 0.849547 1.0128 0.669257 1.32508C0.488767 1.63737 0.488767 2.02229 0.669257 2.33481C0.849547 2.64709 1.18276 2.83946 1.54356 2.83946H4.71675C5.05077 2.83865 5.34112 3.06824 5.41756 3.39341L7.91869 13.9254C8.12031 14.7775 8.60425 15.5367 9.29177 16.0792C9.97955 16.6217 10.8303 16.9158 11.7062 16.9138H19.9562C20.8377 16.918 21.6945 16.6219 22.3853 16.0739C23.0758 15.5258 23.5589 14.7588 23.7552 13.8994L25.6186 5.86878V5.86858C25.6889 5.56615 25.6158 5.24844 25.421 5.0068C25.226 4.76514 24.9309 4.6267 24.6206 4.63113L24.6204 4.63083ZM21.7819 13.4434C21.6859 13.8549 21.4529 14.2219 21.1213 14.4838C20.7895 14.7458 20.3786 14.8875 19.9561 14.8857H11.7061C11.2839 14.8863 10.8741 14.7442 10.543 14.4822C10.212 14.2205 9.97925 13.8543 9.88287 13.4434L8.25321 6.65006H23.3599L21.7819 13.4434Z" fill="#707494"/>
</svg>
