<svg width="38" height="27" viewBox="0 0 38 27" fill="none" xmlns="http://www.w3.org/2000/svg">
<g clip-path="url(#clip0_1_97)">
<path d="M4.99951 21H18.9995V14.031C18.9995 10.148 15.8655 7 11.9995 7C8.13351 7 4.99951 10.148 4.99951 14.031V21ZM11.9995 5C16.9695 5 20.9995 9.043 20.9995 14.031V23H2.99951V14.031C2.99951 9.043 7.02951 5 11.9995 5ZM9.49951 24H14.4995C14.4995 24.663 14.2361 25.2989 13.7673 25.7678C13.2984 26.2366 12.6626 26.5 11.9995 26.5C11.3365 26.5 10.7006 26.2366 10.2317 25.7678C9.7629 25.2989 9.49951 24.663 9.49951 24Z" fill="#67768E"/>
</g>
<rect x="12.9995" width="25" height="15" rx="3" fill="#5D5FEF"/>
<path d="M18.2695 5.29V3.7H21.0395V11H19.2595V5.29H18.2695ZM22.1493 9.63C22.3759 9.45 22.4793 9.36667 22.4593 9.38C23.1126 8.84 23.6259 8.39667 23.9993 8.05C24.3793 7.70333 24.6993 7.34 24.9593 6.96C25.2193 6.58 25.3493 6.21 25.3493 5.85C25.3493 5.57667 25.2859 5.36333 25.1593 5.21C25.0326 5.05667 24.8426 4.98 24.5893 4.98C24.3359 4.98 24.1359 5.07667 23.9893 5.27C23.8493 5.45667 23.7793 5.72333 23.7793 6.07H22.1293C22.1426 5.50333 22.2626 5.03 22.4893 4.65C22.7226 4.27 23.0259 3.99 23.3993 3.81C23.7793 3.63 24.1993 3.54 24.6593 3.54C25.4526 3.54 26.0493 3.74333 26.4493 4.15C26.8559 4.55667 27.0593 5.08667 27.0593 5.74C27.0593 6.45333 26.8159 7.11667 26.3293 7.73C25.8426 8.33667 25.2226 8.93 24.4693 9.51H27.1693V10.9H22.1493V9.63ZM27.9222 7.25C27.9222 6.10333 28.1422 5.2 28.5822 4.54C29.0288 3.88 29.7455 3.55 30.7322 3.55C31.7188 3.55 32.4322 3.88 32.8722 4.54C33.3188 5.2 33.5422 6.10333 33.5422 7.25C33.5422 8.41 33.3188 9.32 32.8722 9.98C32.4322 10.64 31.7188 10.97 30.7322 10.97C29.7455 10.97 29.0288 10.64 28.5822 9.98C28.1422 9.32 27.9222 8.41 27.9222 7.25ZM31.8622 7.25C31.8622 6.57667 31.7888 6.06 31.6422 5.7C31.4955 5.33333 31.1922 5.15 30.7322 5.15C30.2722 5.15 29.9688 5.33333 29.8222 5.7C29.6755 6.06 29.6022 6.57667 29.6022 7.25C29.6022 7.70333 29.6288 8.08 29.6822 8.38C29.7355 8.67333 29.8422 8.91333 30.0022 9.1C30.1688 9.28 30.4122 9.37 30.7322 9.37C31.0522 9.37 31.2922 9.28 31.4522 9.1C31.6188 8.91333 31.7288 8.67333 31.7822 8.38C31.8355 8.08 31.8622 7.70333 31.8622 7.25Z" fill="white"/>
<defs>
<clipPath id="clip0_1_97">
<rect width="24" height="24" fill="white" transform="translate(-0.000488281 3)"/>
</clipPath>
</defs>
</svg>
